<svg width="606" height="177" viewBox="0 0 606 177" fill="none" xmlns="http://www.w3.org/2000/svg">
<path d="M167.516 143.305C99.9164 153.705 103.516 92.7277 103.516 52.3051L134.516 46.7277C134.683 49.3943 134.516 55.7248 134.516 83.7277C134.516 105.65 151.516 114.805 167.516 114.805V143.305Z" fill="white"/>
<path d="M182.516 141.305C168.516 50.1051 220.35 33.9717 248.016 37.3051V63.8051C227.216 63.8051 220.016 72.4718 219.016 76.8051H235.016V101.305H213.016V139.305L182.516 141.305Z" fill="white"/>
<path d="M382.016 129.305C359.016 110.805 356.016 62.4718 359.016 37.3051L392.016 38.8051L391.016 68.7277C391.016 100.728 411.516 114.305 424.516 114.305V142.805C421.35 143.805 398.8 142.805 382.016 129.305Z" fill="white"/>
<path d="M438.516 144.805C425.716 51.2051 478.183 44.4718 506.016 52.8051V79.3051C485.216 74.9051 477.35 82.1385 476.016 86.3051L492.016 90.8051V114.305L470.016 110.805V147.805L438.516 144.805Z" fill="white"/>
<path fill-rule="evenodd" clip-rule="evenodd" d="M258.016 0.305095V135.805H290.516V79.3051H316.016V135.805H346.516V59.8051C346.35 42.8051 337.551 11.7436 308.016 3.30509C297.516 0.305093 262.016 -0.528238 258.016 0.305095ZM290.516 54.3051V27.3051C310.516 27.3051 315.85 45.3051 316.016 54.3051H290.516Z" fill="white"/>
<path fill-rule="evenodd" clip-rule="evenodd" d="M2.51638 175.805C-5.48362 137.472 1.01638 59.5051 91.0164 54.3051V155.305L59.0164 161.305V141.305L32.0164 149.305V167.805L2.51638 175.805ZM59.0164 114.805V89.3051C37.8164 95.3051 32.183 115.138 32.0164 124.305L59.0164 114.805Z" fill="white"/>
<path fill-rule="evenodd" clip-rule="evenodd" d="M515.016 54.8051V155.305L546.516 162.305V141.305L573.516 149.805V168.305L603.016 176.805C610.85 138.138 604.216 59.6051 515.016 54.8051ZM546.516 115.805V90.8051C567.716 94.4051 573.35 114.638 573.516 124.305L546.516 115.805Z" fill="white"/>
</svg>
